<svg width="12" height="12" viewBox="0 0 12 12" fill="none" xmlns="http://www.w3.org/2000/svg">
    <path d="M7.32544 6.931C7.32544 8.20485 6.29279 9.2375 5.01894 9.2375C3.74509 9.2375 2.71244 8.20485 2.71244 6.931C2.71244 3.85565 7.32544 3.85565 7.32544 6.931V6.931ZM9.07394 9.951C8.40894 10.618 7.51944 11.9295 5.01444 11.9985C2.28894 12.0725 0.0349378 9.7565 0.0254378 6.8575C0.0204378 5.385 0.412438 4.528 1.43544 3.4615C2.04744 2.8225 4.93744 0 4.93744 0C5.96344 1.026 5.41744 2.4365 4.88344 2.965L3.01744 4.8175C2.78244 5.05 2.03344 5.78 2.05194 7.0395C2.07444 8.6405 3.30694 9.9645 4.95144 9.9395C6.26744 9.9185 6.82944 9.2615 7.13944 8.9495L9.05994 7.0355C9.61144 6.489 10.9449 6.022 11.9744 7.038L9.07394 9.951Z" fill="url(#paint0_linear_167_195)" />
    <defs>
        <linearGradient id="paint0_linear_167_195" x1="-2.04583" y1="-2.73765e-07" x2="14.78" y2="1.08399" gradientUnits="userSpaceOnUse">
            <stop stop-color="#5433FF" />
            <stop offset="1" stop-color="#00E6F6" />
        </linearGradient>
    </defs>
</svg>